<svg id="visual" viewBox="0 0 1920 1080" width="1920" height="1080" xmlns="http://www.w3.org/2000/svg" xmlns:xlink="http://www.w3.org/1999/xlink" version="1.1"><path d="M0 217L45.7 244.8C91.3 272.7 182.7 328.3 274.2 333.5C365.7 338.7 457.3 293.3 548.8 292.8C640.3 292.3 731.7 336.7 823 319.2C914.3 301.7 1005.7 222.3 1097 216C1188.3 209.7 1279.7 276.3 1371.2 291C1462.7 305.7 1554.3 268.3 1645.8 247.5C1737.3 226.7 1828.7 222.3 1874.3 220.2L1920 218L1920 0L1874.3 0C1828.7 0 1737.3 0 1645.8 0C1554.3 0 1462.7 0 1371.2 0C1279.7 0 1188.3 0 1097 0C1005.7 0 914.3 0 823 0C731.7 0 640.3 0 548.8 0C457.3 0 365.7 0 274.2 0C182.7 0 91.3 0 45.7 0L0 0Z" fill="#274C77" stroke-linecap="round" stroke-linejoin="miter"></path></svg>