<svg id="visual" viewBox="0 0 1920 1080" width="1920" height="1080" xmlns="http://www.w3.org/2000/svg" xmlns:xlink="http://www.w3.org/1999/xlink" version="1.1"><rect x="0" y="0" width="1920" height="1080" fill="#002233"></rect><path d="M0 119L45.7 124.8C91.3 130.7 182.7 142.3 274.2 145.7C365.7 149 457.3 144 548.8 140.5C640.3 137 731.7 135 823 130C914.3 125 1005.7 117 1097 116.7C1188.3 116.3 1279.7 123.7 1371.2 130.3C1462.7 137 1554.3 143 1645.8 136.2C1737.3 129.3 1828.7 109.7 1874.3 99.8L1920 90L1920 0L1874.3 0C1828.7 0 1737.3 0 1645.8 0C1554.3 0 1462.7 0 1371.2 0C1279.7 0 1188.3 0 1097 0C1005.7 0 914.3 0 823 0C731.7 0 640.3 0 548.8 0C457.3 0 365.7 0 274.2 0C182.7 0 91.3 0 45.7 0L0 0Z" fill="#002233" stroke-linecap="round" stroke-linejoin="miter"></path></svg>